<svg version="1.2" xmlns="http://www.w3.org/2000/svg" viewBox="0 0 182 192" width="182" height="192">
	<title>ELEMENTS</title>
	<defs>
		<radialGradient id="g1" cx="97.9" cy="107.9" r="84" gradientUnits="userSpaceOnUse">
			<stop offset="0" stop-color="#141b49"/>
			<stop offset="1" stop-color="#fefefe" stop-opacity="0"/>
		</radialGradient>
		<linearGradient id="g2" x1="81.4" y1="-25.2" x2="171.5" y2="64.8" gradientUnits="userSpaceOnUse">
			<stop offset="0" stop-color="#1d6cb6"/>
			<stop offset="1" stop-color="#28368b"/>
		</linearGradient>
	</defs>
	<style>
		.s0 { opacity: .8;mix-blend-mode: multiply;fill: url(#g1) } 
		.s1 { fill: url(#g2) } 
		.s2 { fill: #ffffff } 
	</style>
	<g id="ELEMENTS">
		<g id="all group">
			<g id="-e-">
				<path id="&lt;Path&gt;" class="s0" d="m181.9 107.9c0 46.4-37.6 84-84 84-46.4 0-84-37.6-84-84 0-46.4 37.6-84 84-84 46.4 0 84 37.6 84 84z"/>
				<path id="&lt;Path&gt;" class="s1" d="m140.7 73.9q-3.4 3.1-6.7 6.2c0.9 0.5 1.6 1.2 2.2 2 3.2 4 2.6 9.4-0.7 13.1l-10.1 11.1c2.4 4.3 2.1 10.2-3.2 13.6-10.4 6.6-20.1 14-29.2 22.3-5.9 5.3-13 2.4-15.8-2.8q-6.2 4.6-12.3 9.3c-7 5.3-15.1-2.3-14.9-9.6-3.7 2.4-7.9 2.8-11.8-0.1-1.8-1.4-3.2-3.7-3.7-6.2-3.9 2.4-9.2 1.9-12.5-1.4-4-4-3.4-10 0-14.1 1.8-2.1 3.7-4.2 5.5-6.3-1.1 0.9-2.2 1.9-3.3 2.8-3.8 3.4-9 3.9-13.1 0.8-3.6-2.7-5.5-8.9-2.6-12.9 1.7-2.3 3.5-4.6 5.2-6.9-7.7 1.9-17-6.9-11.4-14.7 5.6-7.6 11.5-15 17.5-22.2-8.4 0.9-16.4-9.7-8.6-16.7 18.1-16.2 38.4-29.8 60.4-39.9 8.2-3.8 16.3 3.2 14.9 10.5 2.3-1.3 4.5-2.6 6.9-3.9 9.7-5.1 20.7 7.9 12.1 15.8-5.1 4.5-10.1 9.3-15 14 6-3.9 12-7.8 18.1-11.6 9.7-6 20.3 8 12.1 15.7q-0.8 0.7-1.5 1.5 0.1-0.1 0.2-0.2c8.9-5.7 18.5 5.8 13.7 13.7 8-0.3 14.6 10.6 7.6 17.1z"/>
				<path id="&lt;Compound Path&gt;" fill-rule="evenodd" class="s2" d="m75.4 85.3q0 2.7-1.1 4.7-1.1 2-2.9 3.4-1.9 1.4-4.4 2.1-2.4 0.7-5.2 0.7h-20.4v-42.1h22.6q2.2 0 3.9 0.9 1.8 1 3.1 2.5 1.2 1.5 1.9 3.4 0.7 1.9 0.7 3.9 0 3.1-1.6 5.8-1.5 2.7-4.5 4 3.6 1.1 5.8 3.8 2.1 2.8 2.1 6.9zm-25.8-24.2v10.6h10.9q2.1 0 3.6-1.4 1.4-1.5 1.4-4 0-2.4-1.3-3.8-1.4-1.4-3.3-1.4zm17.5 22.7q0-1.1-0.4-2.2-0.4-1-1-1.8-0.7-0.8-1.6-1.2-0.9-0.4-1.9-0.4h-12.6v11.1h12.1q1.2 0 2.2-0.5 0.9-0.4 1.6-1.1 0.8-0.8 1.2-1.8 0.4-1 0.4-2.1z"/>
				<path id="&lt;Compound Path&gt;" fill-rule="evenodd" class="s2" d="m93.1 96.2q-3.6 0-6.6-1.2-5.8-2.5-8.1-8.3-1.2-2.9-1.2-6 0-3.2 1.1-6 2.4-5.9 8.2-8.5 3-1.2 6.7-1.2 3.6 0 6.5 1.2c6.4 2.8 9.4 9 9.1 15.7q0 0.7-0.1 1.1h-23.3q0.2 1.8 0.9 3.2 0.6 1.4 1.7 2.4 1.1 0.9 2.5 1.4 1.4 0.6 2.9 0.6 2.3 0 4.3-1.2 2.1-1.1 2.8-2.9l6.6 1.8q-1.6 3.5-5.3 5.7-3.6 2.2-8.7 2.2zm7.8-18.2q0 0 0 0zm-2.5-5.4q-2.2-2-5.4-2-1.5 0-2.9 0.5-1.3 0.5-2.3 1.5-1.1 1-1.7 2.4-0.7 1.4-0.8 3h15.6q-0.3-3.4-2.5-5.4z"/>
				<path id="&lt;Path&gt;" class="s2" d="m83 56.1h20.1v5h-20.1z"/>
			</g>
		</g>
	</g>
</svg>