<svg version="1.2" xmlns="http://www.w3.org/2000/svg" viewBox="0 0 179 195" width="179" height="195">
	<title>ELEMENTS</title>
	<defs>
		<radialGradient id="g1" cx="94.8" cy="110.8" r="84" gradientUnits="userSpaceOnUse">
			<stop offset="0" stop-color="#141b49"/>
			<stop offset="1" stop-color="#fefefe" stop-opacity="0"/>
		</radialGradient>
		<linearGradient id="g2" x1="81.6" y1="-24.8" x2="171.6" y2="65.3" gradientUnits="userSpaceOnUse">
			<stop offset="0" stop-color="#f06b95"/>
			<stop offset="1" stop-color="#c92993"/>
		</linearGradient>
	</defs>
	<style>
		.s0 { opacity: .8;mix-blend-mode: multiply;fill: url(#g1) } 
		.s1 { fill: url(#g2) } 
		.s2 { fill: #ffffff } 
	</style>
	<g id="ELEMENTS">
		<g id="all group">
			<g id="-e-">
				<path id="&lt;Path&gt;" class="s0" d="m178.8 110.8c0 46.4-37.6 84-84 84-46.3 0-84-37.6-84-84 0-46.4 37.7-84 84-84 46.4 0 84 37.6 84 84z"/>
				<path id="&lt;Path&gt;" class="s1" d="m140.8 74.4q-3.3 3-6.7 6.1c0.9 0.6 1.7 1.3 2.3 2 3.2 4 2.5 9.5-0.8 13.1l-10.1 11.2c2.4 4.3 2.1 10.2-3.2 13.6-10.4 6.6-20.1 14-29.2 22.2-5.8 5.3-13 2.4-15.8-2.8q-6.1 4.7-12.3 9.3c-7 5.3-15.1-2.2-14.8-9.5-3.8 2.3-8 2.7-11.8-0.1-1.9-1.4-3.3-3.8-3.8-6.3-3.8 2.5-9.2 1.9-12.4-1.3-4.1-4.1-3.5-10 0-14.2 1.8-2.1 3.6-4.2 5.4-6.3-1.1 1-2.2 1.9-3.3 2.9-3.8 3.4-9 3.8-13.1 0.8-3.6-2.8-5.5-9-2.6-12.9 1.8-2.4 3.5-4.7 5.3-7-7.8 2-17.1-6.9-11.5-14.6 5.6-7.6 11.5-15 17.5-22.3-8.4 1-16.4-9.7-8.5-16.7 18-16.2 38.3-29.7 60.3-39.9 8.2-3.7 16.4 3.2 14.9 10.6 2.3-1.3 4.6-2.7 6.9-3.9 9.7-5.2 20.8 7.8 12.1 15.7-5.1 4.6-10 9.3-14.9 14.1 5.9-4 11.9-7.9 18-11.6 9.7-6.1 20.3 7.9 12.1 15.7q-0.7 0.7-1.5 1.4 0.1-0.1 0.2-0.1c8.9-5.7 18.5 5.8 13.7 13.7 8-0.3 14.6 10.6 7.6 17.1z"/>
				<path id="&lt;Compound Path&gt;" fill-rule="evenodd" class="s2" d="m105.1 74.9c0 18.1-14.7 32.8-32.9 32.8-18.1 0-32.9-14.7-32.9-32.8 0-18.2 14.8-32.9 32.9-32.9 18.2 0 32.9 14.7 32.9 32.9zm-26.6-6.6q0.9 2 1.8 3.9 0.3 0.7 0.5 1.4c2.2-0.3 4.3-0.4 6.4-0.4 6.3 0 11.6 1 12.8 1.2-0.1-6.4-2.4-12.2-6.1-16.9-1 1.3-5.7 6.8-15.4 10.8zm-12.5-20.4c1.1 1.5 5.8 8.1 10.2 16 9.4-3.6 13.6-8.8 14.3-9.9-4.9-4.3-11.3-6.9-18.3-6.9q-3.2 0-6.2 0.8zm-20.9 21.1h0.2c2.6 0 13.2-0.2 25.2-3.3-4.5-7.9-9.2-14.5-10.2-15.9-7.7 3.7-13.4 10.7-15.2 19.2zm6.3 24.3c1.2-2 8.8-13.8 22.7-18.3q0.5-0.2 1-0.3-1-2.2-2.2-4.4c-12.3 3.6-24.3 3.9-27.7 3.9q-0.5 0-0.8 0 0 0.4 0 0.7c0 7 2.7 13.5 7 18.4zm31.6 7.2c-0.5-2.6-2.1-10.9-5.9-20.9q0 0 0 0c-15.3 5.3-21 15.7-21.8 17.3 4.7 3.6 10.6 5.8 16.9 5.8 3.8 0 7.5-0.8 10.8-2.2zm16.7-21.1c-1.1-0.3-5.6-1.6-11.5-1.6-1.7 0-3.6 0.2-5.6 0.5 3.5 9.5 5 17.3 5.4 19.5 6.1-4.2 10.4-10.8 11.7-18.4z"/>
			</g>
		</g>
	</g>
</svg>