<svg version="1.2" xmlns="http://www.w3.org/2000/svg" viewBox="0 0 179 196" width="179" height="196">
	<title>ELEMENTS</title>
	<defs>
		<radialGradient id="g1" cx="93.3" cy="110.1" r="86" gradientUnits="userSpaceOnUse">
			<stop offset="0" stop-color="#141b49"/>
			<stop offset="1" stop-color="#fefefe" stop-opacity="0"/>
		</radialGradient>
		<linearGradient id="g2" x1="81.7" y1="-25.1" x2="171.7" y2="64.9" gradientUnits="userSpaceOnUse">
			<stop offset="0" stop-color="#356fb7"/>
			<stop offset="1" stop-color="#28368b"/>
		</linearGradient>
	</defs>
	<style>
		.s0 { opacity: .8;mix-blend-mode: multiply;fill: url(#g1) } 
		.s1 { fill: url(#g2) } 
		.s2 { fill: #ffffff } 
	</style>
	<g id="ELEMENTS">
		<g id="all group">
			<g id="-e-">
				<path id="&lt;Path&gt;" class="s0" d="m179.3 110.1c0 47.5-38.5 86-86 86-47.5 0-86-38.5-86-86 0-47.5 38.5-86 86-86 47.5 0 86 38.5 86 86z"/>
				<path id="&lt;Path&gt;" class="s1" d="m140.9 74q-3.3 3.1-6.6 6.2c0.8 0.6 1.6 1.2 2.2 2 3.2 4 2.5 9.4-0.8 13.1l-10.1 11.1c2.4 4.4 2.1 10.2-3.2 13.6-10.4 6.6-20.1 14-29.2 22.3-5.8 5.3-13 2.4-15.7-2.8q-6.2 4.6-12.4 9.3c-6.9 5.3-15.1-2.2-14.8-9.5-3.7 2.3-8 2.7-11.8-0.2-1.9-1.4-3.3-3.7-3.8-6.2-3.8 2.4-9.2 1.9-12.4-1.4-4.1-4-3.5-10 0-14.1 1.8-2.1 3.6-4.2 5.4-6.3-1 1-2.2 1.9-3.2 2.8-3.9 3.4-9 3.9-13.2 0.8-3.6-2.7-5.4-8.9-2.5-12.9 1.7-2.3 3.4-4.6 5.2-6.9-7.7 2-17.1-6.9-11.4-14.6 5.5-7.7 11.4-15.1 17.4-22.3-8.4 1-16.4-9.7-8.5-16.7 18.1-16.2 38.3-29.7 60.4-39.9 8.2-3.8 16.3 3.2 14.8 10.6 2.3-1.3 4.6-2.7 6.9-3.9 9.7-5.2 20.8 7.8 12.1 15.7-5 4.6-10 9.3-14.9 14 5.9-3.9 11.9-7.8 18-11.6 9.7-6 20.3 8 12.1 15.7q-0.7 0.8-1.5 1.5 0.1-0.1 0.3-0.2c8.8-5.7 18.4 5.8 13.6 13.7 8.1-0.3 14.6 10.7 7.6 17.1z"/>
				<path id="&lt;Path&gt;" class="s2" d="m61.7 124.1v-36.7h-13.3v-15.2h13.3v-11.6c0-13.1 7.9-20.4 19.9-20.4 5.7 0 11.7 1 11.7 1v12.9h-6.6c-6.5 0-8.6 4.1-8.6 8.2v9.9h14.6l-2.3 15.2h-12.3v36.7z"/>
			</g>
		</g>
	</g>
</svg>