<svg version="1.2" xmlns="http://www.w3.org/2000/svg" viewBox="0 0 179 194" width="179" height="194">
	<title>ELEMENTS</title>
	<defs>
		<radialGradient id="g1" cx="94.8" cy="110.1" r="84" gradientUnits="userSpaceOnUse">
			<stop offset="0" stop-color="#141b49"/>
			<stop offset="1" stop-color="#fefefe" stop-opacity="0"/>
		</radialGradient>
		<linearGradient id="g2" x1="81.6" y1="-24.7" x2="171.6" y2="65.4" gradientUnits="userSpaceOnUse">
			<stop offset="0" stop-color="#fad983"/>
			<stop offset=".2" stop-color="#fab14c"/>
			<stop offset=".4" stop-color="#ef5877"/>
			<stop offset=".5" stop-color="#e43597"/>
			<stop offset=".7" stop-color="#744c9f"/>
			<stop offset="1" stop-color="#4259a7"/>
		</linearGradient>
	</defs>
	<style>
		.s0 { opacity: .8;mix-blend-mode: multiply;fill: url(#g1) } 
		.s1 { fill: url(#g2) } 
		.s2 { fill: #ffffff } 
	</style>
	<g id="ELEMENTS">
		<g id="all group">
			<g id="-e-">
				<path id="&lt;Path&gt;" class="s0" d="m178.8 110.1c0 46.4-37.6 84-84 84-46.3 0-84-37.6-84-84 0-46.4 37.7-84 84-84 46.4 0 84 37.6 84 84z"/>
				<path id="&lt;Path&gt;" class="s1" d="m140.8 74.5q-3.3 3-6.7 6.1c0.9 0.6 1.7 1.3 2.3 2 3.2 4 2.5 9.5-0.8 13.1l-10.1 11.2c2.4 4.3 2.1 10.2-3.2 13.6-10.4 6.6-20.1 14-29.2 22.2-5.8 5.3-13 2.4-15.8-2.8q-6.1 4.7-12.3 9.3c-7 5.3-15.1-2.2-14.8-9.5-3.8 2.3-8 2.7-11.8-0.1-1.9-1.4-3.3-3.8-3.8-6.3-3.8 2.5-9.2 1.9-12.4-1.3-4.1-4.1-3.5-10 0-14.2 1.8-2.1 3.6-4.2 5.4-6.3-1.1 1-2.2 1.9-3.3 2.9-3.8 3.4-9 3.8-13.1 0.8-3.6-2.8-5.5-9-2.6-12.9 1.8-2.4 3.5-4.7 5.3-7-7.8 2-17.1-6.9-11.5-14.6 5.6-7.6 11.5-15 17.5-22.3-8.4 1-16.4-9.7-8.5-16.7 18-16.2 38.3-29.7 60.3-39.9 8.2-3.7 16.4 3.2 14.9 10.6 2.3-1.3 4.6-2.7 6.9-3.9 9.7-5.2 20.8 7.8 12.1 15.7-5.1 4.6-10 9.3-14.9 14.1 5.9-4 11.9-7.9 18-11.6 9.7-6.1 20.3 7.9 12.1 15.7q-0.7 0.7-1.5 1.4 0.1-0.1 0.2-0.1c8.9-5.7 18.5 5.8 13.7 13.7 8-0.3 14.6 10.6 7.6 17.1z"/>
				<path id="&lt;Path&gt;" class="s2" d="m94.4 57.8c0 2.2-1.8 4-4 4-2.2 0-4-1.8-4-4 0-2.2 1.8-4 4-4 2.2 0 4 1.8 4 4z"/>
				<path id="&lt;Compound Path&gt;" fill-rule="evenodd" class="s2" d="m89.4 75.8c0 9.3-7.6 16.9-16.9 16.9-9.3 0-16.9-7.6-16.9-16.9 0-9.3 7.6-16.9 16.9-16.9 9.3 0 16.9 7.6 16.9 16.9zm-6.1 0c0-6-4.8-10.8-10.8-10.8-6 0-10.8 4.8-10.8 10.8 0 6 4.8 10.8 10.8 10.8 6 0 10.8-4.8 10.8-10.8z"/>
				<path id="&lt;Compound Path&gt;" fill-rule="evenodd" class="s2" d="m85.9 110.1h-27.4c-11.3 0-20.6-9.2-20.6-20.6v-27.4c0-11.3 9.3-20.6 20.6-20.6h27.4c11.4 0 20.6 9.3 20.6 20.6v27.4c0 11.4-9.2 20.6-20.6 20.6zm-27.4-62.1c-7.8 0-14.1 6.3-14.1 14.1v27.4c0 7.8 6.3 14.2 14.1 14.2h27.4c7.8 0 14.2-6.4 14.2-14.2v-27.4c0-7.8-6.4-14.1-14.2-14.1z"/>
			</g>
		</g>
	</g>
</svg>