<svg version="1.2" xmlns="http://www.w3.org/2000/svg" viewBox="0 0 182 193" width="182" height="193">
	<title>ELEMENTS</title>
	<defs>
		<radialGradient id="g1" cx="98" cy="109.1" r="84" gradientUnits="userSpaceOnUse">
			<stop offset="0" stop-color="#141b49"/>
			<stop offset="1" stop-color="#fefefe" stop-opacity="0"/>
		</radialGradient>
		<linearGradient id="g2" x1="81.5" y1="-24.8" x2="171.5" y2="65.3" gradientUnits="userSpaceOnUse">
			<stop offset="0" stop-color="#f05750"/>
			<stop offset="1" stop-color="#e52249"/>
		</linearGradient>
	</defs>
	<style>
		.s0 { opacity: .8;mix-blend-mode: multiply;fill: url(#g1) } 
		.s1 { fill: url(#g2) } 
		.s2 { fill: #ffffff } 
	</style>
	<g id="ELEMENTS">
		<g id="all group">
			<g id="-e-">
				<path id="&lt;Path&gt;" class="s0" d="m182 109.1c0 46.3-37.6 84-84 84-46.4 0-84-37.7-84-84 0-46.4 37.6-84 84-84 46.4 0 84 37.6 84 84z"/>
				<path id="&lt;Path&gt;" class="s1" d="m140.7 74.4q-3.3 3-6.6 6.1c0.8 0.6 1.6 1.3 2.2 2 3.2 4 2.5 9.5-0.8 13.1l-10 11.2c2.3 4.3 2 10.2-3.3 13.6-10.3 6.6-20 14-29.2 22.2-5.8 5.3-13 2.4-15.7-2.8q-6.2 4.7-12.3 9.3c-7 5.3-15.2-2.2-14.9-9.5-3.7 2.3-7.9 2.7-11.8-0.1-1.9-1.4-3.3-3.8-3.8-6.3-3.8 2.5-9.1 1.9-12.4-1.3-4-4.1-3.5-10 0-14.2 1.8-2.1 3.7-4.2 5.5-6.3-1.1 1-2.2 1.9-3.3 2.9-3.8 3.4-9 3.8-13.1 0.8-3.7-2.8-5.5-9-2.6-12.9 1.7-2.4 3.5-4.7 5.2-7-7.7 2-17.1-6.9-11.4-14.6 5.5-7.6 11.4-15 17.5-22.3-8.4 1-16.4-9.7-8.6-16.7 18.1-16.2 38.3-29.7 60.4-39.9 8.2-3.7 16.3 3.2 14.8 10.6 2.3-1.3 4.6-2.7 6.9-3.9 9.8-5.2 20.8 7.8 12.1 15.7-5 4.6-10 9.3-14.9 14.1 6-4 11.9-7.9 18-11.6 9.7-6.1 20.3 7.9 12.1 15.7q-0.7 0.7-1.5 1.4 0.2-0.1 0.3-0.1c8.8-5.7 18.4 5.8 13.7 13.7 8-0.3 14.5 10.6 7.5 17.1z"/>
				<path id="&lt;Path&gt;" class="s2" d="m67.7 87.6q-0.1 0.3-0.2 0.5c-2.6 10.3-2.9 12.5-5.6 17.3q-1.9 3.3-4.3 6.4c-0.2 0.2-0.3 0.5-0.7 0.5-0.4-0.1-0.4-0.5-0.4-0.8-0.5-3.1-0.7-6.2-0.6-9.3 0.1-4.1 0.6-5.5 5.9-27.7 0.1-0.3 0-0.6-0.1-0.9-1.3-3.4-1.5-6.8-0.4-10.3 2.3-7.6 10.9-8.1 12.4-1.9 0.9 3.8-1.5 8.9-3.4 16.3-1.5 6.2 5.7 10.5 11.9 6.1 5.7-4.2 7.9-14.1 7.5-21.1-0.9-14-16.2-17.1-26-12.6-11.2 5.2-13.7 19.1-8.6 25.4 0.6 0.8 1.1 1.3 0.9 2.1-0.3 1.3-0.6 2.6-1 3.8-0.2 1-1 1.3-2 0.9-1.8-0.7-3.4-1.9-4.6-3.5-4.3-5.3-5.6-15.8 0.1-24.7 6.3-9.8 18-13.8 28.6-12.6 12.8 1.4 20.8 10.2 22.3 20 0.7 4.5 0.2 15.6-6.1 23.4-7.3 9-19 9.6-24.5 4.1-0.4-0.4-0.7-0.9-1.1-1.4z"/>
			</g>
		</g>
	</g>
</svg>