<svg version="1.2" xmlns="http://www.w3.org/2000/svg" viewBox="0 0 179 195" width="179" height="195">
	<title>ELEMENTS</title>
	<defs>
		<radialGradient id="g1" cx="93.3" cy="108.9" r="86" gradientUnits="userSpaceOnUse">
			<stop offset="0" stop-color="#141b49"/>
			<stop offset="1" stop-color="#fefefe" stop-opacity="0"/>
		</radialGradient>
		<linearGradient id="g2" x1="81.7" y1="-24.7" x2="171.7" y2="65.4" gradientUnits="userSpaceOnUse">
			<stop offset="0" stop-color="#e4e630"/>
			<stop offset="1" stop-color="#fab14c"/>
		</linearGradient>
	</defs>
	<style>
		.s0 { opacity: .8;mix-blend-mode: multiply;fill: url(#g1) } 
		.s1 { fill: url(#g2) } 
		.s2 { fill: #ffffff } 
	</style>
	<g id="ELEMENTS">
		<g id="all group">
			<g id="-e-">
				<path id="&lt;Path&gt;" class="s0" d="m179.3 108.9c0 47.5-38.5 86-86 86-47.5 0-86-38.5-86-86 0-47.5 38.5-86 86-86 47.5 0 86 38.5 86 86z"/>
				<path id="&lt;Path&gt;" class="s1" d="m140.9 74.5q-3.3 3.1-6.6 6.1c0.8 0.6 1.6 1.3 2.2 2 3.2 4 2.5 9.5-0.8 13.2l-10.1 11.1c2.4 4.3 2.1 10.2-3.2 13.6-10.4 6.6-20.1 14-29.2 22.3-5.8 5.3-13 2.4-15.7-2.9q-6.2 4.7-12.4 9.4c-6.9 5.2-15.1-2.3-14.8-9.6-3.7 2.4-8 2.8-11.8-0.1-1.9-1.4-3.3-3.8-3.8-6.2-3.8 2.4-9.2 1.8-12.4-1.4-4.1-4.1-3.5-10 0-14.2 1.8-2.1 3.6-4.1 5.4-6.2-1 0.9-2.2 1.8-3.2 2.8-3.9 3.4-9 3.9-13.2 0.8-3.6-2.7-5.4-9-2.5-12.9 1.7-2.4 3.4-4.7 5.2-7-7.7 2-17.1-6.9-11.4-14.6 5.5-7.6 11.4-15 17.4-22.2-8.4 0.9-16.4-9.8-8.5-16.8 18.1-16.2 38.3-29.7 60.4-39.9 8.2-3.7 16.3 3.2 14.8 10.6 2.3-1.3 4.6-2.6 6.9-3.9 9.7-5.2 20.8 7.9 12.1 15.7-5 4.6-10 9.3-14.9 14.1 5.9-4 11.9-7.9 18-11.6 9.7-6 20.3 7.9 12.1 15.7q-0.7 0.7-1.5 1.4 0.1 0 0.3-0.1c8.8-5.7 18.4 5.8 13.6 13.7 8.1-0.3 14.6 10.6 7.6 17.1z"/>
				<path id="&lt;Path&gt;" class="s2" d="m36.6 94.7q0-0.5 0-1.1c0.4-0.5 0.9-1 1.7-1.1 5.9-1.2 9.8-4.9 12.8-9.9 2.5-4.1 2.1-5.1-2.5-6.7q-0.4-0.1-0.8-0.3c-1-0.4-2-0.8-2.8-1.5-2.1-1.8-0.9-4.4 1.6-5 1.7-0.4 3.3 0.7 5 0.9 1.2 0.2 1.6-0.2 1.5-1.4-0.4-3.2-0.4-6.4-0.2-9.5 0.3-6.1 3.2-10.7 8.3-13.7 7.3-4.4 15-4.4 22.4-0.1 4.7 2.8 7.7 6.9 8.3 12.4 0.4 3.6 0.3 7.2 0 10.7-0.1 1.6 0.2 1.9 1.7 1.5 1.9-0.4 3.5-1.4 5.5-0.5 1.1 0.4 2 1.4 2 2.6 0 0.8-0.5 1.5-1.1 2.1-0.9 0.8-2.1 1.2-3.2 1.6-0.9 0.4-1.8 0.7-2.6 1.1-1.8 0.8-2.3 1.9-1.5 3.6 2.9 5.9 7 10.4 13.7 12 0.8 0.2 1.5 0.5 2 1.2q0 0.6 0 1.1c-0.7 1.3-1.8 2.1-3.1 2.5-1.3 0.5-2.6 1.1-4 1.2-2 0.1-3 1-3.3 3-0.3 1.9-0.8 2.2-2.8 2q-0.7-0.1-1.4-0.2c-3.8-0.7-7.4-0.3-10.6 2.3-0.6 0.5-1.3 0.9-2 1.3-5.3 3.5-10.8 3.9-16.4 0.6-1.6-0.9-3-1.9-4.5-2.9-1.2-0.8-2.6-1.2-4-1.5-2.4-0.3-4.6 0.2-6.9 0.5-1.1 0.1-2.3-0.2-2.3-1.4-0.2-2.9-2-3.7-4.4-3.9-1.1-0.1-2.3-0.6-3.3-1.1-1.2-0.4-2.3-1.1-2.8-2.4z"/>
			</g>
		</g>
	</g>
</svg>