<svg version="1.2" xmlns="http://www.w3.org/2000/svg" viewBox="0 0 182 195" width="182" height="195">
	<title>ELEMENTS</title>
	<defs>
		<radialGradient id="g1" cx="97.9" cy="110.8" r="84" gradientUnits="userSpaceOnUse">
			<stop offset="0" stop-color="#141b49"/>
			<stop offset="1" stop-color="#fefefe" stop-opacity="0"/>
		</radialGradient>
		<linearGradient id="g2" x1="81.4" y1="-24.8" x2="171.5" y2="65.3" gradientUnits="userSpaceOnUse">
			<stop offset="0" stop-color="#14ab5f"/>
			<stop offset="1" stop-color="#009757"/>
		</linearGradient>
	</defs>
	<style>
		.s0 { opacity: .8;mix-blend-mode: multiply;fill: url(#g1) } 
		.s1 { fill: url(#g2) } 
		.s2 { fill: #ffffff } 
	</style>
	<g id="ELEMENTS">
		<g id="all group">
			<g id="-e-">
				<path id="&lt;Path&gt;" class="s0" d="m181.9 110.8c0 46.4-37.6 84-84 84-46.4 0-84-37.6-84-84 0-46.4 37.6-84 84-84 46.4 0 84 37.6 84 84z"/>
				<path id="&lt;Path&gt;" class="s1" d="m140.7 74.4q-3.4 3-6.7 6.1c0.9 0.6 1.6 1.3 2.2 2 3.2 4 2.6 9.5-0.7 13.1l-10.1 11.2c2.4 4.3 2.1 10.2-3.2 13.6-10.4 6.6-20.1 14-29.2 22.2-5.9 5.3-13 2.4-15.8-2.8q-6.2 4.7-12.3 9.3c-7 5.3-15.1-2.2-14.9-9.5-3.7 2.3-7.9 2.7-11.8-0.1-1.8-1.4-3.2-3.8-3.7-6.3-3.9 2.5-9.2 1.9-12.5-1.3-4-4.1-3.4-10 0-14.2 1.8-2.1 3.7-4.2 5.5-6.3-1.1 1-2.2 1.9-3.3 2.9-3.8 3.4-9 3.8-13.1 0.8-3.6-2.8-5.5-9-2.6-12.9 1.7-2.4 3.5-4.7 5.2-7-7.7 2-17-6.9-11.4-14.6 5.6-7.6 11.5-15 17.5-22.3-8.4 1-16.4-9.7-8.6-16.7 18.1-16.2 38.4-29.7 60.4-39.9 8.2-3.7 16.3 3.2 14.9 10.6 2.3-1.3 4.5-2.7 6.9-3.9 9.7-5.2 20.7 7.8 12.1 15.7-5.1 4.6-10.1 9.3-15 14.1 6-4 12-7.9 18.1-11.6 9.7-6.1 20.3 7.9 12.1 15.7q-0.8 0.7-1.5 1.4 0.1-0.1 0.2-0.1c8.9-5.7 18.5 5.8 13.7 13.7 8-0.3 14.6 10.6 7.6 17.1z"/>
				<path id="&lt;Path&gt;" class="s2" d="m94.6 98.2c-0.6 1.2-1.8 1.8-3 1.8q-0.9 0-1.8-0.5c-9.3-5.4-20.1-6.3-27.4-6.1-8.2 0.3-14.2 1.9-14.3 1.9-1.9 0.5-3.8-0.6-4.3-2.5-0.5-1.9 0.6-3.8 2.4-4.3 0.3-0.1 6.8-1.9 15.7-2.2 5.3-0.1 10.4 0.2 15.2 1.1 6 1.2 11.5 3.2 16.3 6 1.7 1 2.2 3.1 1.2 4.8z"/>
				<path id="&lt;Path&gt;" class="s2" d="m101.2 84.6c-0.7 1.3-2.2 2-3.6 2-0.7 0-1.4-0.2-2.1-0.5-11-6.5-23.8-7.5-32.5-7.3-9.7 0.3-16.8 2.3-16.9 2.3-2.2 0.6-4.5-0.7-5.1-3-0.6-2.2 0.7-4.5 2.9-5.1 0.3-0.1 8-2.2 18.6-2.5 6.3-0.2 12.3 0.2 17.9 1.3 7.1 1.3 13.6 3.7 19.3 7 2 1.2 2.7 3.8 1.5 5.8z"/>
				<path id="&lt;Path&gt;" class="s2" d="m105.3 72.1c-0.9 0-1.8-0.2-2.6-0.7-26.2-15.3-60.2-6.2-60.6-6.1-2.7 0.7-5.5-0.9-6.3-3.6-0.8-2.7 0.9-5.6 3.6-6.3 0.4-0.1 9.8-2.7 22.8-3.1 7.7-0.3 15.1 0.3 22 1.6 8.7 1.6 16.7 4.5 23.7 8.6 2.4 1.5 3.3 4.6 1.8 7.1-0.9 1.6-2.6 2.5-4.4 2.5z"/>
			</g>
		</g>
	</g>
</svg>