<svg version="1.2" xmlns="http://www.w3.org/2000/svg" viewBox="0 0 180 196" width="180" height="196">
	<title>ELEMENTS</title>
	<defs>
		<linearGradient id="g1" x1="81.4" y1="-24.7" x2="171.5" y2="65.4" gradientUnits="userSpaceOnUse">
			<stop offset="0" stop-color="#191145"/>
			<stop offset="1" stop-color="#010203"/>
		</linearGradient>
		<radialGradient id="g2" cx="96.3" cy="111.8" r="84" gradientUnits="userSpaceOnUse">
			<stop offset="0" stop-color="#141b49"/>
			<stop offset="1" stop-color="#fefefe" stop-opacity="0"/>
		</radialGradient>
	</defs>
	<style>
		.s0 { fill: url(#g1) } 
		.s1 { opacity: .8;mix-blend-mode: multiply;fill: url(#g2) } 
		.s2 { fill: #ee1d52 } 
		.s3 { fill: #ffffff } 
		.s4 { fill: #69c9d0 } 
	</style>
	<g id="ELEMENTS">
		<g id="all group">
			<g id="-e-">
				<path id="&lt;Path&gt;" class="s0" d="m140.7 74.5q-3.4 3-6.7 6.1c0.9 0.6 1.6 1.3 2.2 2 3.2 4 2.6 9.5-0.7 13.1l-10.1 11.2c2.4 4.3 2.1 10.2-3.2 13.6-10.4 6.6-20.1 14-29.2 22.2-5.9 5.3-13 2.4-15.8-2.8q-6.2 4.7-12.3 9.3c-7 5.3-15.1-2.2-14.9-9.5-3.7 2.3-7.9 2.7-11.8-0.1-1.8-1.4-3.2-3.8-3.7-6.3-3.9 2.5-9.2 1.9-12.5-1.3-4-4.1-3.4-10 0-14.2 1.8-2.1 3.7-4.2 5.5-6.3-1.1 1-2.2 1.9-3.3 2.9-3.8 3.4-9 3.8-13.1 0.8-3.6-2.8-5.5-9-2.6-12.9 1.7-2.4 3.5-4.7 5.2-7-7.7 2-17-6.9-11.4-14.6 5.6-7.6 11.5-15 17.5-22.3-8.4 1-16.4-9.7-8.6-16.7 18.1-16.2 38.4-29.7 60.4-39.9 8.2-3.7 16.3 3.2 14.9 10.6 2.3-1.3 4.5-2.7 6.9-3.9 9.7-5.2 20.7 7.8 12.1 15.7-5.1 4.6-10.1 9.3-15 14.1 6-4 12-7.9 18.1-11.6 9.7-6.1 20.3 7.9 12.1 15.7q-0.8 0.7-1.5 1.4 0.1-0.1 0.2-0.1c8.9-5.7 18.5 5.8 13.7 13.7 8-0.3 14.6 10.6 7.6 17.1z"/>
				<path id="&lt;Path&gt;" class="s1" d="m180.3 111.8c0 46.4-37.7 84-84 84-46.4 0-84-37.6-84-84 0-46.4 37.6-84 84-84 46.3 0 84 37.6 84 84z"/>
				<path id="&lt;Compound Path&gt;" fill-rule="evenodd" class="s2" d="m87.9 65.2q0 0 0 0zm0 0v24.8c0 12.5-10.1 22.5-22.6 22.5-6.3 0-12-2.6-16.1-6.7 3.6 2.4 7.9 3.8 12.6 3.8 12.4 0 22.5-10.1 22.5-22.5v-24.9c4.8 3.4 10.7 5.4 17 5.4v-9.6q1.7 0.4 3.5 0.4v12.2c-6.3 0-12.1-2-16.9-5.4zm-3.4-23.8h3.4v1.5c0.3 3.9 1.9 7.3 4.4 10-4.1-2.5-7-6.7-7.8-11.5zm-33.1 45.6c0-5.7 4.7-10.3 10.3-10.3q1.6 0 3.2 0.5v-9.7q1.8 0 3.5 0.2v12.5q-1.5-0.5-3.1-0.5c-5.7 0-10.3 4.6-10.3 10.3 0 2.2 0.7 4.4 2.1 6.2-3.4-1.7-5.7-5.2-5.7-9.2z"/>
				<path id="&lt;Path&gt;" class="s3" d="m84.3 87.1c0 12.4-10.1 22.5-22.5 22.5-4.7 0-9-1.4-12.6-3.8-3.9-4.1-6.4-9.7-6.4-15.8 0-12.3 9.8-22.2 22.1-22.5v9.7q-1.5-0.5-3.2-0.5c-5.6 0-10.3 4.6-10.3 10.3 0 4 2.3 7.5 5.7 9.2 1.9 2.5 4.9 4.1 8.2 4.1 5.7 0 10.3-4.6 10.3-10.3v-48.6h8.9c0.8 4.8 3.7 9 7.8 11.5 2.3 2.5 5.4 4.4 9 5.1v9.6c-6.3 0-12.2-2-17-5.4z"/>
				<path id="&lt;Compound Path&gt;" class="s4" d="m92.3 52.9c2.7 1.7 5.8 2.6 9 2.6v2.5c-3.5-0.7-6.6-2.5-9-5.1zm-16.7-11.5v48.6c0 5.7-4.6 10.3-10.3 10.3-3.3 0-6.3-1.6-8.2-4.1 1.4 0.7 3 1.1 4.6 1.1 5.7 0 10.3-4.6 10.3-10.2v-48.7h12.3v1.6q0.1 0.7 0.2 1.4zm-32.8 48.6c0 6.1 2.4 11.7 6.4 15.8-6-4.1-10-10.9-10-18.7 0-12.5 10.1-22.6 22.6-22.6q1.5 0 3 0.3v2.7c-12.2 0.3-22 10.2-22 22.5z"/>
			</g>
		</g>
	</g>
</svg>