<svg version="1.2" xmlns="http://www.w3.org/2000/svg" viewBox="0 0 180 194" width="180" height="194">
	<title>ELEMENTS</title>
	<defs>
		<radialGradient id="g1" cx="96.4" cy="110.1" r="84" gradientUnits="userSpaceOnUse">
			<stop offset="0" stop-color="#141b49"/>
			<stop offset="1" stop-color="#fefefe" stop-opacity="0"/>
		</radialGradient>
		<linearGradient id="g2" x1="81.5" y1="-24.7" x2="171.5" y2="65.4" gradientUnits="userSpaceOnUse">
			<stop offset="0" stop-color="#00b7e0"/>
			<stop offset="1" stop-color="#2b74ba"/>
		</linearGradient>
	</defs>
	<style>
		.s0 { opacity: .8;mix-blend-mode: multiply;fill: url(#g1) } 
		.s1 { fill: url(#g2) } 
		.s2 { fill: #ffffff } 
	</style>
	<g id="ELEMENTS">
		<g id="all group">
			<g id="-e-">
				<path id="&lt;Path&gt;" class="s0" d="m180.4 110.1c0 46.4-37.6 84-84 84-46.4 0-84-37.6-84-84 0-46.4 37.6-84 84-84 46.4 0 84 37.6 84 84z"/>
				<path id="&lt;Path&gt;" class="s1" d="m140.7 74.5q-3.3 3-6.6 6.1c0.8 0.6 1.6 1.3 2.2 2 3.2 4 2.5 9.5-0.8 13.1l-10 11.2c2.3 4.3 2 10.2-3.3 13.6-10.3 6.6-20 14-29.2 22.2-5.8 5.3-13 2.4-15.7-2.8q-6.2 4.7-12.3 9.3c-7 5.3-15.2-2.2-14.9-9.5-3.7 2.3-7.9 2.7-11.8-0.1-1.9-1.4-3.3-3.8-3.8-6.3-3.8 2.5-9.1 1.9-12.4-1.3-4-4.1-3.5-10 0-14.2 1.8-2.1 3.7-4.2 5.5-6.3-1.1 1-2.2 1.9-3.3 2.9-3.8 3.4-9 3.8-13.1 0.8-3.7-2.8-5.5-9-2.6-12.9 1.7-2.4 3.5-4.7 5.2-7-7.7 2-17.1-6.9-11.4-14.6 5.5-7.6 11.4-15 17.5-22.3-8.4 1-16.4-9.7-8.6-16.7 18.1-16.2 38.3-29.7 60.4-39.9 8.2-3.7 16.3 3.2 14.8 10.6 2.3-1.3 4.6-2.7 6.9-3.9 9.8-5.2 20.8 7.8 12.1 15.7-5 4.6-10 9.3-14.9 14.1 6-4 11.9-7.9 18-11.6 9.7-6.1 20.3 7.9 12.1 15.7q-0.7 0.7-1.5 1.4 0.2-0.1 0.3-0.1c8.8-5.7 18.4 5.8 13.7 13.7 8-0.3 14.5 10.6 7.5 17.1z"/>
				<path id="&lt;Path&gt;" class="s2" d="m104.7 55.9q0 0 0 0c0 0.2 0 0.6-0.3 1-1.5 2-3.1 3.8-5.1 5.3-0.3 0.2-0.8 0.5-0.8 0.9 0 10.5-2.7 21-10.3 28.7-9.8 9.7-24.5 12.3-37.5 8.7q-3.8-1-7.2-2.9-1.2-0.6-2.3-1.3c-0.2-0.2-0.3-0.3-0.2-0.4 0.2-0.1 0.3-0.1 0.9 0 3.6 0.4 7.4-0.2 10.8-1.4 1.9-0.6 6-2 7.2-3.8 0 0 0 0 0.1 0-0.5-0.2-1-0.2-1.5-0.2-3.5-1.1-8.2-2.8-10.4-8.8-0.2-0.3 0-0.5 0.3-0.5 3 0.3 4 0.1 5-0.1-0.6-0.1-1.1-0.3-1.7-0.5-4.4-1.7-7.7-6.1-8.3-10.8 0-0.5-0.1-1-0.1-1.5 0.1-0.3 0.2-0.4 0.5-0.2 2.3 1.1 4.9 1.4 5.1 1.4q-0.9-0.7-1.6-1.4c-3.9-3.7-5.4-11.1-2.3-15.8 0.3-0.4 0.4-0.4 0.7 0 7.1 8 15.8 11.8 26.3 13.4 0.3 0 0.3 0 0.3-0.3-0.3-1.9-0.3-3.7 0.1-5.5 0.5-1.9 1.4-3.7 2.6-5.2 1.2-1.5 2.7-2.7 4.4-3.6 1.6-0.9 3.5-1.4 5.4-1.5 1.9-0.1 3.8 0.2 5.6 0.9 1.4 0.6 2.6 1.3 3.7 2.3q0.4 0.3 0.7 0.7 0.2 0.2 0.5 0.1c2.7-0.7 5.2-1.6 7.7-2.9 0.1-0.1 0.2-0.1 0.3-0.1 0.1 0.1 0.1 0.3 0 0.4-0.4 1.4-1.2 2.7-2.1 3.9-0.6 0.7-2.1 2.6-3.2 2.8 2.2-0.4 4.5-0.9 6.5-1.8 0.2-0.2 0.2-0.2 0.2 0z"/>
			</g>
		</g>
	</g>
</svg>