<svg version="1.2" xmlns="http://www.w3.org/2000/svg" viewBox="0 0 180 192" width="180" height="192">
	<title>ELEMENTS</title>
	<defs>
		<radialGradient id="g1" cx="96.4" cy="107.9" r="84" gradientUnits="userSpaceOnUse">
			<stop offset="0" stop-color="#141b49"/>
			<stop offset="1" stop-color="#fefefe" stop-opacity="0"/>
		</radialGradient>
		<linearGradient id="g2" x1="81.5" y1="-25.2" x2="171.5" y2="64.8" gradientUnits="userSpaceOnUse">
			<stop offset="0" stop-color="#2ab46d"/>
			<stop offset="1" stop-color="#1aae68"/>
		</linearGradient>
	</defs>
	<style>
		.s0 { opacity: .8;mix-blend-mode: multiply;fill: url(#g1) } 
		.s1 { fill: url(#g2) } 
		.s2 { fill: #ffffff } 
	</style>
	<g id="ELEMENTS">
		<g id="all group">
			<g id="-e-">
				<path id="&lt;Path&gt;" class="s0" d="m180.4 107.9c0 46.4-37.6 84-84 84-46.4 0-84-37.6-84-84 0-46.4 37.6-84 84-84 46.4 0 84 37.6 84 84z"/>
				<path id="&lt;Path&gt;" class="s1" d="m140.7 73.9q-3.3 3.1-6.6 6.2c0.8 0.5 1.6 1.2 2.2 2 3.2 4 2.5 9.4-0.8 13.1l-10 11.1c2.3 4.3 2 10.2-3.3 13.6-10.3 6.6-20 14-29.2 22.3-5.8 5.3-13 2.4-15.7-2.8q-6.2 4.6-12.3 9.3c-7 5.3-15.2-2.3-14.9-9.6-3.7 2.4-7.9 2.8-11.8-0.1-1.9-1.4-3.3-3.7-3.8-6.2-3.8 2.4-9.1 1.9-12.4-1.4-4-4-3.5-10 0-14.1 1.8-2.1 3.7-4.2 5.5-6.3-1.1 0.9-2.2 1.9-3.3 2.8-3.8 3.4-9 3.9-13.1 0.8-3.7-2.7-5.5-8.9-2.6-12.9 1.7-2.3 3.5-4.6 5.2-6.9-7.7 1.9-17.1-6.9-11.4-14.7 5.5-7.6 11.4-15 17.5-22.2-8.4 0.9-16.4-9.7-8.6-16.7 18.1-16.2 38.3-29.8 60.4-39.9 8.2-3.8 16.3 3.2 14.8 10.5 2.3-1.3 4.6-2.6 6.9-3.9 9.8-5.1 20.8 7.9 12.1 15.8-5 4.5-10 9.3-14.9 14 6-3.9 11.9-7.8 18-11.6 9.7-6 20.3 8 12.1 15.7q-0.7 0.7-1.5 1.5 0.2-0.1 0.3-0.2c8.8-5.7 18.4 5.8 13.7 13.7 8-0.3 14.5 10.6 7.5 17.1z"/>
				<path id="&lt;Compound Path&gt;" fill-rule="evenodd" class="s2" d="m40.6 107.9l4.8-18.2c-2.7-4.9-4.2-10.5-4.2-16.2 0-18.5 15.1-33.6 33.6-33.6 18.5 0 33.6 15.1 33.6 33.6 0 18.5-15.1 33.6-33.6 33.6-5.5 0-11-1.4-15.9-4.1zm19.2-11.7l1.1 0.7c4.2 2.5 9 3.9 13.9 3.9 15 0 27.3-12.3 27.3-27.3 0-15-12.3-27.2-27.3-27.2-15 0-27.2 12.2-27.2 27.2 0 5 1.3 9.9 4 14.1l0.7 1.2-2.8 10.2z"/>
				<path id="&lt;Path&gt;" class="s2" d="m91.1 81.5c0.2 0.8 0 1.6-0.3 2.3-1 2.5-3.5 4-6.1 4.5-2.4 0.5-4.4-0.3-6.7-1-2-0.7-3.9-1.7-5.7-2.8-3.6-2.2-6.8-5.2-9.3-8.6q-1.1-1.5-2.1-3.2c-0.9-1.5-1.6-3-2.1-4.7q-0.2-1.1-0.2-2.1c0-2.6 0.9-5.1 2.9-6.7 1.2-1 2.9-1.4 4.2-0.7 1.4 0.8 2.1 2.8 2.8 4.3 0.5 1.1 1.1 2.5 0.9 3.8-0.2 1.2-1.2 2.2-2 3.2-0.5 0.6-0.6 1.1-0.2 1.8 2.6 4.3 6.2 7.4 10.9 9.3 0.6 0.3 1.1 0.2 1.6-0.3 0.8-1 1.6-3 2.8-3.5 1.6-0.7 3.4 0.3 4.8 1.1 1.3 0.7 3.5 1.7 3.8 3.3z"/>
			</g>
		</g>
	</g>
</svg>