<svg version="1.2" xmlns="http://www.w3.org/2000/svg" viewBox="0 0 179 192" width="179" height="192">
	<title>ELEMENTS</title>
	<defs>
		<radialGradient id="g1" cx="94.8" cy="107.9" r="84" gradientUnits="userSpaceOnUse">
			<stop offset="0" stop-color="#141b49"/>
			<stop offset="1" stop-color="#fefefe" stop-opacity="0"/>
		</radialGradient>
		<linearGradient id="g2" x1="81.6" y1="-25.2" x2="171.6" y2="64.8" gradientUnits="userSpaceOnUse">
			<stop offset="0" stop-color="#ee3b3b"/>
			<stop offset="1" stop-color="#91191c"/>
		</linearGradient>
	</defs>
	<style>
		.s0 { opacity: .8;mix-blend-mode: multiply;fill: url(#g1) } 
		.s1 { fill: url(#g2) } 
		.s2 { fill: #ffffff } 
	</style>
	<g id="ELEMENTS">
		<g id="all group">
			<g id="-e-">
				<path id="&lt;Path&gt;" class="s0" d="m178.8 107.9c0 46.4-37.6 84-84 84-46.3 0-84-37.6-84-84 0-46.4 37.7-84 84-84 46.4 0 84 37.6 84 84z"/>
				<path id="&lt;Path&gt;" class="s1" d="m140.8 73.9q-3.3 3.1-6.7 6.2c0.9 0.5 1.7 1.2 2.3 2 3.2 4 2.5 9.4-0.8 13.1l-10.1 11.1c2.4 4.3 2.1 10.2-3.2 13.6-10.4 6.6-20.1 14-29.2 22.3-5.8 5.3-13 2.4-15.8-2.8q-6.1 4.6-12.3 9.3c-7 5.3-15.1-2.3-14.8-9.6-3.8 2.4-8 2.8-11.8-0.1-1.9-1.4-3.3-3.7-3.8-6.2-3.8 2.4-9.2 1.9-12.4-1.4-4.1-4-3.5-10 0-14.1 1.8-2.1 3.6-4.2 5.4-6.3-1.1 0.9-2.2 1.9-3.3 2.8-3.8 3.4-9 3.9-13.1 0.8-3.6-2.7-5.5-8.9-2.6-12.9 1.8-2.3 3.5-4.6 5.3-6.9-7.8 1.9-17.1-6.9-11.5-14.7 5.6-7.6 11.5-15 17.5-22.2-8.4 0.9-16.4-9.7-8.5-16.7 18-16.2 38.3-29.8 60.3-39.9 8.2-3.8 16.4 3.2 14.9 10.5 2.3-1.3 4.6-2.6 6.9-3.9 9.7-5.1 20.8 7.9 12.1 15.8-5.1 4.5-10 9.3-14.9 14 5.9-3.9 11.9-7.8 18-11.6 9.7-6 20.3 8 12.1 15.7q-0.7 0.7-1.5 1.5 0.1-0.1 0.2-0.2c8.9-5.7 18.5 5.8 13.7 13.7 8-0.3 14.6 10.6 7.6 17.1z"/>
				<path id="&lt;Compound Path&gt;" fill-rule="evenodd" class="s2" d="m103.5 83c0 7.8-6.2 14.1-14 14.1h-35.9c-7.8 0-14.1-6.3-14.1-14.1v-16.7c0-7.7 6.3-14 14.1-14h35.9c7.8 0 14 6.3 14 14zm-21.7-8.7l-15.5-8.4c-0.6-0.4-2.8 0.1-2.8 0.8v16.4c0 0.7 2.2 1.1 2.8 0.8l16.1-8c0.7-0.3 0-1.3-0.6-1.6z"/>
			</g>
		</g>
	</g>
</svg>